<svg width="296" height="111" viewBox="0 0 296 111" fill="none" xmlns="http://www.w3.org/2000/svg">
<path d="M136.287 52.1685C136.593 53.4936 136.225 54.7774 135.182 56.0201C134.139 57.2628 132.806 58.0714 131.185 58.4459C129.564 58.8205 128.163 58.7255 126.981 58.1609C125.812 57.5771 125.128 56.8566 124.93 55.9991C124.732 55.1417 124.874 54.6572 125.358 54.5455C125.732 54.4591 126.165 54.5561 126.657 54.8367C127.148 55.1172 127.687 55.3869 128.272 55.6458C128.873 55.9011 129.493 55.9549 130.132 55.8072C130.771 55.6596 131.435 55.2271 132.123 54.5098C132.811 53.7925 133.114 53.2545 133.031 52.896C132.948 52.5374 132.366 52.0399 131.282 51.4033C130.215 50.7632 129.134 50.1014 128.04 49.4181C126.959 48.7156 126.362 48.1227 126.25 47.6394C126.135 47.1406 126.096 46.5829 126.135 45.9665C126.188 45.3465 126.323 44.8967 126.537 44.6173C127.188 43.5966 128.108 42.6369 129.296 41.7384C130.496 40.8207 131.603 40.2448 132.616 40.0107C133.209 39.8739 133.759 40.0176 134.268 40.4421C134.773 40.8509 135.088 41.3281 135.214 41.8737C135.265 42.092 135.127 42.3127 134.801 42.5358C134.487 42.7398 134.011 42.9893 133.373 43.2845C132.75 43.5761 132.127 43.9336 131.502 44.3571C130.049 45.3168 129.369 45.9993 129.463 46.4047C129.506 46.5917 129.858 46.8717 130.519 47.2445C131.176 47.6017 131.887 47.9793 132.652 48.3773C133.43 48.7561 134.187 49.2956 134.923 49.9957C135.656 50.6803 136.111 51.4046 136.287 52.1685ZM143.141 45.9297C143.113 46.3794 143.063 47.015 142.99 47.8365C142.929 48.6388 142.851 49.6504 142.755 50.8713C142.675 52.0885 142.644 52.7361 142.662 52.8141C142.677 52.8764 142.809 52.8788 143.058 52.8212C143.323 52.7599 143.899 52.4462 144.786 51.88C145.67 51.2981 146.198 50.9874 146.369 50.9478C146.759 50.8577 147.015 51.0777 147.138 51.6078C147.26 52.1378 146.885 52.8976 146.014 53.8872C145.139 54.8612 144.132 55.4797 142.994 55.7426C142.495 55.8578 141.84 55.7218 141.028 55.3347C140.216 54.9475 139.745 54.4733 139.615 53.9121C139.507 53.4444 139.514 52.4083 139.636 50.8036C139.77 49.1798 139.858 48.0675 139.9 47.4667C139.331 47.7786 138.891 47.9706 138.579 48.0426C138.268 48.1146 137.892 47.9798 137.451 47.6381C137.008 47.2809 136.741 46.9074 136.651 46.5176C136.535 46.0188 137.646 45.3187 139.984 44.4175C139.945 42.8993 139.803 41.6101 139.558 40.5501C139.45 40.0824 139.63 39.7945 140.098 39.6865C140.503 39.5928 141.075 39.7234 141.814 40.0782C142.565 40.4138 142.996 40.8233 143.107 41.3066C143.215 41.7742 143.267 42.4602 143.263 43.3644C144.004 43.1604 144.569 43.0133 144.959 42.9233C146.128 42.6532 146.774 42.7832 146.896 43.3132C146.976 43.6562 146.701 44.0316 146.073 44.4395C145.456 44.8282 144.479 45.3249 143.141 45.9297ZM158.183 45.238C158.522 45.4226 158.714 45.6163 158.761 45.8189C158.808 46.0216 158.811 46.4641 158.772 47.1465C158.733 47.8289 158.723 48.3566 158.744 48.7295C158.761 49.0869 158.769 49.3723 158.769 49.5858C158.785 49.7956 158.799 49.9647 158.812 50.0931C158.822 50.2058 158.823 50.3533 158.816 50.5356C158.824 50.7143 158.826 50.8618 158.82 50.9781C158.826 51.0752 158.822 51.1994 158.807 51.3505C158.805 51.4824 158.789 51.5927 158.761 51.6815C158.728 51.7546 158.69 51.8374 158.645 51.9297C158.581 52.0761 158.439 52.1744 158.221 52.2249C158.003 52.2753 157.679 52.1201 157.251 51.7592C156.839 51.3947 156.482 50.9187 156.182 50.3311C155.063 52.1662 154.004 53.199 153.006 53.4295C152.336 53.5844 151.526 53.3855 150.578 52.8329C149.625 52.2647 149.065 51.6142 148.895 50.8815C148.722 50.1332 148.813 48.9957 149.166 47.469C149.52 45.9422 150.138 44.461 151.022 43.0253C151.921 41.586 152.939 40.7349 154.077 40.472C154.732 40.3207 155.576 40.528 156.61 41.0938C157.644 41.6596 158.235 42.2621 158.382 42.9012C158.527 43.5248 158.46 44.3038 158.183 45.238ZM152.232 50.5047C152.856 50.3607 153.585 49.7489 154.419 48.6694C155.266 47.5707 155.664 46.3455 155.615 44.994C155.587 44.8033 155.694 44.6636 155.936 44.5748C155.684 43.697 155.434 43.2869 155.184 43.3445C154.561 43.4886 153.953 44.056 153.361 45.0467C152.784 46.0338 152.352 47.0449 152.066 48.0799C151.795 49.1113 151.71 49.8453 151.811 50.2818C151.84 50.4065 151.875 50.4886 151.917 50.5282C151.971 50.5486 152.076 50.5408 152.232 50.5047ZM161.111 43.0098L160.361 40.3998C160.159 39.5268 160.331 39.0273 160.877 38.9012C161.188 38.8292 161.519 38.8759 161.87 39.0413C162.235 39.2031 162.554 39.5154 162.825 39.9783C163.247 39.3882 163.737 38.8808 164.296 38.4561C164.867 38.0122 165.394 37.7345 165.877 37.6228C167.015 37.3599 167.647 37.5013 167.773 38.0469C167.838 38.3275 167.832 38.5506 167.755 38.7161C167.691 38.8624 167.634 38.974 167.586 39.0508C167.554 39.1239 167.48 39.2313 167.365 39.3728C167.262 39.4952 167.185 39.5869 167.133 39.6481C166.829 39.9648 166.609 40.1879 166.475 40.3174C165.874 40.916 165.397 41.5847 165.042 42.3235C164.683 43.0467 164.505 43.9828 164.508 45.1317C164.501 47.0217 164.398 48.4578 164.198 49.4401C164.01 50.4031 163.666 50.9422 163.168 51.0575C162.684 51.1691 162.264 51.0199 161.906 50.6099C161.565 50.1962 161.347 49.7867 161.253 49.3814C161.156 48.9605 161.16 48.3027 161.265 47.408C161.386 46.5098 161.433 45.7518 161.405 45.1342C161.389 44.4974 161.291 43.7893 161.111 43.0098ZM174.084 38.7814C174.056 39.2311 174.006 39.8667 173.933 40.6882C173.872 41.4905 173.794 42.5021 173.698 43.723C173.618 44.9402 173.587 45.5878 173.605 45.6658C173.619 45.7281 173.751 45.7305 174.001 45.6729C174.266 45.6116 174.842 45.2979 175.729 44.7316C176.613 44.1498 177.141 43.8391 177.312 43.7995C177.702 43.7094 177.958 43.9294 178.08 44.4595C178.203 44.9895 177.828 45.7493 176.957 46.7389C176.081 47.7129 175.075 48.3314 173.937 48.5943C173.438 48.7095 172.782 48.5735 171.97 48.1864C171.158 47.7992 170.688 47.325 170.558 46.7638C170.45 46.2961 170.457 45.26 170.579 43.6553C170.713 42.0315 170.801 40.9192 170.843 40.3184C170.274 40.6303 169.834 40.8223 169.522 40.8943C169.211 40.9663 168.835 40.8315 168.394 40.4898C167.951 40.1325 167.684 39.759 167.594 39.3693C167.478 38.8704 168.589 38.1704 170.926 37.2692C170.888 35.751 170.746 34.4618 170.501 33.4018C170.393 32.9341 170.573 32.6462 171.04 32.5382C171.446 32.4445 172.018 32.5751 172.757 32.9299C173.507 33.2655 173.939 33.675 174.05 34.1582C174.158 34.6259 174.21 35.3119 174.205 36.2161C174.947 36.0121 175.512 35.865 175.902 35.775C177.071 35.5049 177.717 35.6349 177.839 36.1649C177.918 36.5079 177.644 36.8833 177.016 37.2912C176.399 37.6799 175.422 38.1766 174.084 38.7814ZM179.551 31.5081C179.457 31.1028 179.541 30.6482 179.803 30.1445C180.076 29.6215 180.384 29.3205 180.727 29.2412C181.086 29.1584 181.604 29.4821 182.281 30.2123C182.959 30.9424 183.343 31.5024 183.433 31.8921C183.52 32.2663 183.461 32.5835 183.259 32.8438C183.056 33.1041 182.822 33.2648 182.557 33.326C182.105 33.4305 181.515 33.2549 180.785 32.7994C180.056 32.3438 179.645 31.9134 179.551 31.5081ZM180.577 34.3501C181.123 34.224 181.678 34.4242 182.243 34.9505C182.824 35.4732 183.18 36.023 183.314 36.5998C183.382 36.896 183.356 38.0269 183.235 39.9925C183.127 41.9389 182.996 43.7918 182.844 45.5511C182.798 46.2023 182.486 46.5946 181.909 46.7278C181.566 46.8071 181.234 46.7526 180.911 46.5644C180.6 46.357 180.398 46.0506 180.305 45.6453C180.207 45.2244 180.164 44.1504 180.176 42.4235C180.2 40.6774 180.179 39.2041 180.116 38.0037C180.064 36.7841 180.062 35.8894 180.111 35.3198C180.172 34.7309 180.328 34.4077 180.577 34.3501ZM192.614 31.5692C193.425 31.382 194.219 31.5845 194.996 32.1767C195.786 32.7498 196.276 33.4494 196.466 34.2757C196.773 35.6008 196.875 37.0386 196.773 38.5893C196.684 40.1207 196.472 41.3356 196.137 42.234C195.819 43.1287 195.394 43.6373 194.864 43.7597C194.35 43.8785 194.008 43.5716 193.839 42.8389C193.709 42.2777 193.705 41.088 193.827 39.27C193.892 37.7769 193.855 36.7263 193.715 36.1183C193.574 35.5104 193.426 35.2244 193.27 35.2604C193.067 35.3072 192.888 35.4554 192.732 35.7048C192.592 35.9507 192.478 36.166 192.389 36.3507C192.3 36.5354 192.199 36.7723 192.085 37.0613C191.983 37.3312 191.893 37.5819 191.815 37.8133C191.749 38.0256 191.659 38.3093 191.544 38.6643C191.441 39.0001 191.358 39.2819 191.296 39.5098C191.23 39.7221 191.147 40.0039 191.048 40.3553C190.225 43.4028 189.4 45.022 188.574 45.2129C188.246 45.2885 187.768 45.1033 187.14 44.6574C186.508 44.1958 186.161 43.8325 186.1 43.5675C186.06 43.396 186.085 43.0044 186.173 42.3928C186.274 41.762 186.337 41.2876 186.362 40.9698C186.399 40.6328 186.409 40.2857 186.392 39.9283C186.391 39.5673 186.369 39.1866 186.325 38.786C186.279 38.3699 186.238 38.0509 186.203 37.829C186.184 37.6036 186.136 37.2534 186.059 36.7785C185.731 34.7195 185.588 33.57 185.632 33.3302C185.69 33.0867 185.782 32.9506 185.907 32.9218C186.499 32.7849 187.126 32.9029 187.787 33.2757C188.444 33.6329 188.819 34.0142 188.913 34.4195C189.136 35.3861 189.207 36.8312 189.126 38.7548C189.729 36.7435 190.314 35.0812 190.881 33.7679C191.46 32.4354 192.038 31.7025 192.614 31.5692ZM207.361 33.4831C207.656 33.6941 207.847 33.9867 207.933 34.3609C208.019 34.735 207.97 35.2309 207.784 35.8486C207.61 36.874 207.536 38.1146 207.56 39.5705C207.584 41.0264 207.544 42.2017 207.439 43.0963C207.352 44.003 207.206 44.7921 207 45.4637C206.81 46.1318 206.471 46.7273 205.984 47.2503C205.497 47.7733 204.88 48.1212 204.132 48.2941C203.087 48.5353 202.073 48.4085 201.088 47.9134C200.103 47.4183 199.553 46.9214 199.438 46.4225C199.326 45.9393 199.356 45.4643 199.527 44.9978C199.702 44.5468 199.899 44.2961 200.117 44.2457C200.351 44.1917 200.598 44.266 200.859 44.4686C201.134 44.6676 201.391 44.8876 201.627 45.1286C201.882 45.3816 202.187 45.5986 202.541 45.7796C202.895 45.9606 203.251 46.0097 203.609 45.9269C203.968 45.844 204.241 45.5346 204.429 44.9984C204.618 44.4623 204.727 43.9035 204.756 43.3218C204.851 41.9534 204.882 40.9856 204.849 40.4184C203.94 41.3181 203.151 41.8453 202.481 42.0002C201.826 42.1514 201.104 41.9405 200.315 41.3675C199.522 40.7788 199.051 40.1649 198.904 39.5258C198.753 38.871 198.737 38.0207 198.856 36.975C198.988 35.91 199.215 34.8312 199.537 33.7386C199.872 32.6268 200.379 31.623 201.059 30.727C201.754 29.8274 202.53 29.2785 203.388 29.0804C203.965 28.9472 204.49 28.9818 204.964 29.1844C205.434 29.3714 205.818 29.6849 206.117 30.1249C206.639 30.8911 207.022 31.8043 207.267 32.8644C207.303 33.0203 207.334 33.2265 207.361 33.4831ZM201.753 38.7444C201.8 38.947 201.909 39.0286 202.08 38.9889C202.533 38.8845 203.17 38.3021 203.992 37.2418C204.815 36.1815 205.304 35.2064 205.459 34.3165L205.357 33.8722C205.123 32.8589 204.887 32.2647 204.649 32.0897C204.531 32.0021 204.393 31.9764 204.237 32.0124C203.489 32.1853 202.845 33.1634 202.304 34.9468C201.764 36.7302 201.58 37.9961 201.753 38.7444ZM225.83 21.9253C225.685 21.5811 225.508 21.2772 225.299 21.0134C225.091 20.7496 224.885 20.6411 224.682 20.6879C224.495 20.7312 224.333 20.9165 224.195 21.2439C224.073 21.5677 223.992 22.0708 223.952 22.7532C223.887 23.8194 223.859 25.0492 223.869 26.4427C225.039 26.1067 225.92 25.8702 226.513 25.7334C227.121 25.5929 227.595 25.582 227.934 25.7006C228.27 25.8037 228.466 25.9799 228.524 26.2294C228.636 26.7126 228.286 27.1876 227.474 27.6543C226.662 28.121 225.459 28.67 223.864 29.3011C223.837 32.7394 223.763 34.9077 223.642 35.8059C223.518 36.6886 223.269 37.1732 222.894 37.2596C222.598 37.328 222.192 37.1674 221.675 36.7778C221.17 36.369 220.888 36.0398 220.831 35.7904C220.773 35.541 220.759 35.2322 220.789 34.864C220.959 33.3961 221.023 32.0019 220.981 30.6816C220.542 30.9143 220.135 31.0739 219.761 31.1604C219.403 31.2432 219.006 31.1623 218.572 30.9178C218.134 30.6576 217.86 30.2859 217.748 29.8027C217.618 29.2415 218.629 28.4989 220.78 27.575C220.541 24.4773 220.672 22.1646 221.173 20.6366C221.67 19.093 222.682 18.1448 224.21 17.7919C224.943 17.6226 225.696 17.8263 226.47 18.4029C227.243 18.9796 227.744 19.759 227.971 20.7411C228.118 21.3803 228.134 21.9104 228.018 22.3313C227.898 22.7367 227.674 22.9772 227.347 23.0528C227.02 23.1285 226.72 23.0416 226.449 22.7922C226.194 22.5392 225.987 22.2503 225.83 21.9253ZM229.574 27.1938L228.823 24.5839C228.621 23.7108 228.793 23.2113 229.339 23.0853C229.651 23.0132 229.982 23.0599 230.332 23.2253C230.698 23.3872 231.016 23.6995 231.287 24.1623C231.709 23.5722 232.2 23.0648 232.759 22.6401C233.329 22.1963 233.856 21.9185 234.34 21.8069C235.478 21.544 236.11 21.6854 236.236 22.231C236.301 22.5116 236.295 22.7347 236.218 22.9002C236.153 23.0465 236.097 23.158 236.049 23.2348C236.016 23.308 235.943 23.4153 235.828 23.5568C235.725 23.6792 235.647 23.771 235.596 23.8321C235.291 24.1488 235.072 24.3719 234.937 24.5015C234.337 25.1 233.859 25.7687 233.504 26.5076C233.146 27.2308 232.968 28.1668 232.971 29.3157C232.964 31.2057 232.86 32.6419 232.66 33.6241C232.472 34.5871 232.129 35.1263 231.63 35.2415C231.147 35.3532 230.726 35.204 230.369 34.7939C230.027 34.3802 229.809 33.9708 229.716 33.5654C229.618 33.1445 229.622 32.4867 229.728 31.5921C229.849 30.6938 229.895 29.9359 229.868 29.3182C229.852 28.6815 229.754 27.9733 229.574 27.1938ZM241.381 30.5012C242.136 29.9325 242.694 29.0072 243.055 27.7251C243.415 26.443 243.48 25.3031 243.25 24.3054C243.019 23.3077 242.721 22.6541 242.354 22.3448C241.773 22.8894 241.292 23.8627 240.91 25.2647C240.543 26.6632 240.47 27.8378 240.689 28.7888C240.905 29.7242 241.136 30.2949 241.381 30.5012ZM237.61 29.7465C237.16 27.7978 237.333 25.8118 238.13 23.7885C238.943 21.7616 239.942 20.6113 241.126 20.3376C242.311 20.0639 243.406 20.2543 244.411 20.9088C245.413 21.5478 246.05 22.4597 246.324 23.6445C246.594 24.8137 246.589 26.0711 246.309 27.4167C246.028 28.7624 245.475 29.9575 244.649 31.0023C243.82 32.0314 242.828 32.6793 241.674 32.9458C240.817 33.1438 239.988 32.933 239.188 32.3131C238.388 31.6933 237.862 30.8378 237.61 29.7465ZM262.249 15.4825C262.857 15.3421 263.457 15.6304 264.05 16.3474C264.642 17.0644 265.016 17.7581 265.171 18.4284C265.326 19.0988 265.424 20.1271 265.465 21.5134C265.518 22.8806 265.406 24.2447 265.129 25.6059C264.865 26.948 264.413 27.6928 263.774 27.8405C263.259 27.9593 262.921 27.668 262.759 26.9665C262.597 26.2649 262.535 25.0723 262.573 23.3885C262.611 21.7048 262.572 20.6135 262.457 20.1146C262.342 19.6157 262.206 19.3843 262.05 19.4203C261.723 19.496 261.416 19.9446 261.129 20.7661C260.843 21.5877 260.519 22.6725 260.157 24.0205C259.811 25.3649 259.599 26.2267 259.523 26.6056C259.446 26.9846 259.376 27.288 259.314 27.5159C259.267 27.7402 259.207 27.9759 259.133 28.2229C258.825 29.1644 258.162 29.3175 257.145 28.6821C256.627 28.3584 256.328 28.0251 256.249 27.6821C256.234 27.6198 256.222 26.9986 256.212 25.8185C256.215 24.6193 256.048 23.2947 255.713 21.8449C255.573 21.2369 255.432 20.9491 255.292 20.9815C255.105 21.0248 254.93 21.2623 254.767 21.694C254.604 22.1258 254.379 22.8922 254.091 23.9931C253.804 25.0941 253.547 26.0074 253.32 26.733C252.526 29.2648 251.785 30.61 251.099 30.7684C250.756 30.8476 250.261 30.6583 249.613 30.2003C248.981 29.7388 248.631 29.3599 248.563 29.0637C248.491 28.7519 248.493 27.9796 248.569 26.7467C248.658 25.4947 248.597 24.2031 248.388 22.872C248.195 21.5373 248.053 20.4946 247.961 19.7438C247.886 18.9895 247.988 18.58 248.269 18.5151C248.861 18.3783 249.488 18.4963 250.149 18.8691C250.821 19.2227 251.205 19.6022 251.298 20.0075C251.511 20.9273 251.547 22.6104 251.406 25.0569C251.896 22.2014 252.408 20.2273 252.944 19.1347C253.52 18 254.174 17.3481 254.906 17.1788C255.312 17.0852 255.897 17.3441 256.662 17.9555C257.443 18.5634 257.909 19.1946 258.06 19.8494C258.208 20.4886 258.33 21.0516 258.426 21.5385C258.628 20.2108 259.102 18.9191 259.846 17.6634C260.591 16.4076 261.391 15.6806 262.249 15.4825ZM118.783 102.25C119.281 102.134 119.615 101.162 119.784 99.3335C119.941 97.5238 120.028 95.2374 120.047 92.4743C120.062 89.6956 120.095 87.9225 120.148 87.155C120.213 86.3683 120.288 85.8418 120.374 85.5755C120.476 85.3057 120.628 85.1473 120.831 85.1005C121.299 84.9925 121.829 85.1902 122.421 85.6938C123.03 86.1937 123.411 86.7789 123.566 87.4492C123.631 87.7298 123.447 91.697 123.015 99.3507C122.924 100.948 122.521 102.191 121.807 103.078C121.096 103.981 120.164 104.566 119.01 104.833C118.199 105.02 117.319 104.87 116.369 104.384C115.419 103.897 114.885 103.396 114.766 102.882C114.683 102.523 114.722 102.088 114.883 101.574C115.047 101.076 115.261 100.797 115.526 100.736C115.791 100.675 116.263 100.902 116.94 101.419C117.12 101.558 117.231 101.647 117.273 101.687C117.874 102.156 118.377 102.343 118.783 102.25ZM120.361 80.8247C120.634 80.3018 120.95 79.9989 121.308 79.916C121.667 79.8332 122.177 80.1587 122.839 80.8925C123.517 81.6227 123.914 82.2372 124.029 82.736C124.087 82.9855 124.016 83.2481 123.817 83.524C123.614 83.7843 123.388 83.9432 123.139 84.0009C122.671 84.1089 122.073 83.9351 121.343 83.4796C120.614 83.0241 120.203 82.5936 120.109 82.1883C120.015 81.783 120.099 81.3284 120.361 80.8247ZM132.255 83.0772C132.29 82.6586 132.494 82.4061 132.868 82.3197C133.243 82.2333 133.745 82.4538 134.376 82.9813C135.023 83.5052 135.4 84.001 135.508 84.4687C135.548 84.6402 135.454 85.8689 135.226 88.1547C134.999 90.4405 134.833 92.2442 134.728 93.5658C134.661 94.271 134.37 94.683 133.855 94.8019C133.544 94.8739 133.253 94.826 132.985 94.6581C132.728 94.4711 132.544 94.136 132.432 93.6527C132.321 93.1694 132.256 92.4619 132.237 91.5301C131.165 94.2083 130.153 95.6572 129.202 95.8769C128.703 95.9921 128.029 95.8112 127.18 95.3341C126.327 94.8414 125.83 94.2911 125.69 93.6831C125.344 92.1865 125.324 90.1795 125.629 87.6622C125.95 85.1413 126.485 83.7945 127.233 83.6216C127.685 83.5172 128.129 83.628 128.566 83.9541C129.018 84.2766 129.3 84.6794 129.412 85.1627C129.455 85.3498 129.381 85.9171 129.189 86.8645C128.598 89.7105 128.426 91.6635 128.671 92.7236C128.692 92.8171 128.742 92.8549 128.82 92.8369C129.054 92.7828 129.406 92.3157 129.875 91.4353C130.357 90.5357 130.837 89.3082 131.316 87.7527C131.806 86.1779 132.119 84.6194 132.255 83.0772ZM142.75 80.0616C143.342 79.9248 144.008 80.1405 144.747 80.7087C145.485 81.277 145.92 81.8417 146.049 82.403C146.136 82.7771 146.015 83.002 145.688 83.0776C145.501 83.1208 145.212 83.1137 144.821 83.0562C144.426 82.9832 144.042 82.9899 143.668 83.0763C143.309 83.1591 142.8 83.4081 142.141 83.8232C141.497 84.2347 141.222 84.6431 141.315 85.0484C141.351 85.2043 141.614 85.3817 142.103 85.5807C142.593 85.7797 143.123 85.9774 143.694 86.174C144.265 86.3705 144.825 86.7008 145.376 87.1648C145.923 87.6131 146.272 88.1647 146.423 88.8195C146.571 89.4586 146.245 90.2154 145.445 91.0899C144.661 91.9607 143.63 92.5438 142.351 92.8391C141.089 93.1308 139.939 93.0927 138.901 92.7248C137.864 92.3569 137.275 91.8689 137.134 91.2609C136.994 90.6529 137.173 90.2913 137.672 90.1761C137.875 90.1293 138.134 90.1514 138.451 90.2425C139.335 90.5145 140.354 90.5172 141.507 90.2507C142.676 89.9806 143.225 89.6897 143.153 89.3779C143.081 89.0661 142.776 88.7754 142.237 88.5056C141.711 88.2168 141.145 87.9698 140.539 87.7649C139.949 87.5564 139.374 87.2705 138.814 86.9073C138.265 86.5248 137.939 86.1076 137.835 85.6555C137.64 84.8136 138.193 83.7252 139.494 82.3901C140.791 81.0395 141.877 80.2633 142.75 80.0616ZM152.9 80.6234C152.872 81.0731 152.822 81.7087 152.749 82.5302C152.688 83.3325 152.61 84.3441 152.514 85.565C152.434 86.7822 152.403 87.4298 152.421 87.5078C152.435 87.5701 152.567 87.5725 152.817 87.5149C153.082 87.4537 153.658 87.1399 154.545 86.5737C155.429 85.9918 155.957 85.6811 156.128 85.6415C156.518 85.5514 156.774 85.7714 156.896 86.3015C157.019 86.8315 156.644 87.5913 155.773 88.5809C154.897 89.5549 153.891 90.1734 152.753 90.4363C152.254 90.5515 151.598 90.4156 150.786 90.0284C149.974 89.6412 149.504 89.167 149.374 88.6058C149.266 88.1381 149.273 87.102 149.395 85.4973C149.529 83.8735 149.617 82.7612 149.658 82.1604C149.09 82.4723 148.65 82.6643 148.338 82.7363C148.026 82.8083 147.65 82.6735 147.21 82.3318C146.766 81.9746 146.5 81.6011 146.409 81.2113C146.294 80.7125 147.405 80.0124 149.742 79.1113C149.704 77.593 149.562 76.3038 149.317 75.2438C149.209 74.7761 149.389 74.4882 149.856 74.3802C150.262 74.2865 150.834 74.4171 151.573 74.7719C152.323 75.1075 152.755 75.517 152.866 76.0003C152.974 76.4679 153.026 77.1539 153.021 78.0581C153.762 77.8541 154.328 77.7071 154.718 77.617C155.887 77.3469 156.533 77.4769 156.655 78.0069C156.734 78.3499 156.46 78.7253 155.832 79.1332C155.215 79.5219 154.238 80.0186 152.9 80.6234ZM167.956 68.8195C168.345 68.7295 168.901 68.8967 169.623 69.321C170.361 69.7418 170.793 70.225 170.919 70.7706C171.041 71.3007 171.081 72.753 171.039 75.1275C170.996 77.502 171.074 79.118 171.272 79.9754C171.466 80.8172 171.717 81.4408 172.024 81.8461C172.347 82.2477 172.695 82.4053 173.069 82.3189C173.459 82.2289 173.848 81.8516 174.237 81.1871C174.621 80.5071 174.947 79.6765 175.213 78.6955C175.491 77.6952 175.645 76.5511 175.676 75.2631C175.719 73.9559 175.62 72.7801 175.378 71.7356C175.134 70.6755 174.883 69.8385 174.626 69.2245C174.385 68.607 174.25 68.2358 174.221 68.1111C174.109 67.6278 174.256 67.3394 174.661 67.2458C175.16 67.1305 175.897 67.4038 176.871 68.0655C177.86 68.7237 178.49 69.6374 178.76 70.8066C179.027 71.9602 179.132 73.3399 179.076 74.9457C179.016 76.5359 178.798 78.0806 178.422 79.5798C178.046 81.0789 177.431 82.3952 176.576 83.5287C175.737 84.6586 174.763 85.3514 173.657 85.6071C172.565 85.8592 171.442 85.5111 170.287 84.5628C169.132 83.6144 168.416 82.5401 168.138 81.3397C167.861 80.1393 167.697 78.7158 167.645 77.0693C167.589 75.4071 167.571 73.9087 167.591 72.5739C167.611 71.2391 167.56 70.3067 167.438 69.7767C167.315 69.2466 167.488 68.9276 167.956 68.8195ZM192.403 76.1529C192.709 77.478 192.341 78.7619 191.298 80.0046C190.255 81.2472 188.922 82.0558 187.301 82.4304C185.68 82.8049 184.279 82.7099 183.097 82.1453C181.928 81.5616 181.244 80.841 181.046 79.9836C180.848 79.1262 180.99 78.6416 181.474 78.53C181.848 78.4435 182.281 78.5406 182.773 78.8211C183.264 79.1016 183.803 79.3713 184.388 79.6302C184.989 79.8855 185.609 79.9393 186.248 79.7917C186.887 79.644 187.551 79.2115 188.239 78.4942C188.927 77.7769 189.23 77.239 189.147 76.8804C189.064 76.5219 188.482 76.0243 187.398 75.3878C186.331 74.7476 185.25 74.0859 184.156 73.4026C183.075 72.7 182.478 72.1072 182.366 71.6239C182.251 71.125 182.212 70.5674 182.251 69.951C182.304 69.3309 182.439 68.8812 182.653 68.6017C183.304 67.581 184.224 66.6214 185.412 65.7229C186.612 64.8051 187.719 64.2292 188.732 63.9952C189.325 63.8583 189.875 64.0021 190.384 64.4265C190.889 64.8353 191.204 65.3126 191.33 65.8582C191.381 66.0764 191.243 66.2971 190.917 66.5203C190.603 66.7242 190.127 66.9738 189.489 67.2689C188.866 67.5605 188.243 67.918 187.618 68.3415C186.165 69.3012 185.485 69.9838 185.579 70.3891C185.622 70.5762 185.974 70.8561 186.635 71.2289C187.292 71.5862 188.003 71.9638 188.768 72.3617C189.546 72.7405 190.303 73.28 191.039 73.9802C191.772 74.6648 192.227 75.389 192.403 76.1529ZM208.042 74.8062C208.068 72.7147 208.071 71.2361 208.052 70.3702C206.648 69.8405 205.526 69.3197 204.686 68.8078C203.845 68.2959 203.354 67.736 203.214 67.128C203.07 66.5044 203.005 65.9036 203.019 65.3255C203.045 64.7283 203.129 64.2738 203.27 63.9619C203.609 63.2927 204.274 62.5478 205.267 61.7273C206.26 60.9067 207.252 60.2259 208.243 59.6848C208.477 57.9231 208.827 56.9882 209.295 56.8801C209.817 56.7925 210.159 57.1732 210.322 58.0222C210.402 58.3652 210.436 58.7267 210.425 59.1069C210.873 59.2663 211.291 59.6212 211.681 60.1715C212.067 60.7063 212.316 61.2153 212.428 61.6986C212.54 62.1819 212.432 62.4613 212.104 62.537C211.995 62.5622 211.815 62.5628 211.563 62.5389C211.311 62.515 211.076 62.5282 210.858 62.5786C210.655 62.6254 210.448 62.6896 210.237 62.7712C210.151 64.5318 210.082 66.149 210.028 67.6229C213.165 68.8358 214.938 70.29 215.346 71.9857C215.647 73.2137 215.201 74.3758 214.009 75.4722C212.817 76.5686 211.403 77.3796 209.768 77.9053C209.676 79.1418 209.482 79.7942 209.185 79.8626C208.979 79.8938 208.765 79.8201 208.543 79.6415C208.34 79.4749 208.223 79.3214 208.19 79.1811C208.174 79.0372 208.142 78.7242 208.097 78.2421C207.005 78.2807 206.054 77.9997 205.242 77.3991C204.43 76.7984 203.921 76.0538 203.716 75.1652C203.507 74.261 203.613 73.7603 204.034 73.6631C204.501 73.5551 205.052 73.7726 205.687 74.3157C205.932 74.5219 206.249 74.6867 206.639 74.8102C207.029 74.9336 207.426 74.9485 207.831 74.8549L208.042 74.8062ZM206.187 65.9238C206.234 66.1265 206.841 66.4459 208.009 66.8822C208.006 66.4397 208.001 65.4965 207.996 64.0526C206.718 64.9883 206.115 65.612 206.187 65.9238ZM212.141 72.5045C212.044 72.0836 211.309 71.6047 209.937 71.0677C209.891 72.3593 209.867 73.4321 209.868 74.2859C211.527 73.7219 212.285 73.1281 212.141 72.5045ZM221.106 58.9796C221.333 59.9617 221.448 61.101 221.452 62.3973C221.452 63.6781 221.438 64.8228 221.408 65.8314C221.378 66.84 221.365 67.812 221.367 68.7474C221.385 69.6792 221.389 70.4419 221.378 71.0356C221.38 71.61 221.361 72.2054 221.323 72.8219C221.236 74.0079 220.99 74.6478 220.584 74.7414C220.226 74.8243 219.76 74.6937 219.188 74.3496C218.628 73.9864 218.305 73.6177 218.218 73.2435C218.132 72.8694 218.105 71.9723 218.139 70.5524C218.172 69.1325 218.11 67.2995 217.952 65.0533C217.806 62.788 217.462 60.4783 216.918 58.1243C216.813 57.6722 216.987 57.3939 217.439 57.2895C217.907 57.1814 218.614 57.363 219.56 57.834C220.522 58.3015 221.037 58.6834 221.106 58.9796ZM226.378 64.9789L226.356 64.8853C226.313 64.6983 226.363 64.5226 226.505 64.3582C226.65 64.062 226.969 63.6272 227.46 63.0538C227.952 62.4805 228.411 61.9473 228.84 61.4543C229.28 60.9421 229.649 60.3724 229.947 59.7451C230.246 59.1178 230.337 58.5548 230.222 58.0559C230.179 57.8688 230.087 57.7915 229.947 57.8239C229.432 57.9428 228.759 58.3693 227.927 59.1034C227.091 59.8219 226.541 60.2118 226.276 60.273C226.011 60.3343 225.527 60.1587 224.824 59.7463C224.118 59.3184 223.734 58.9719 223.672 58.7068C223.572 58.2703 223.841 57.7648 224.48 57.1902C225.115 56.6 225.875 56.0878 226.76 55.6534C227.657 55.1999 228.464 54.8903 229.182 54.7246C230.21 54.4869 231.185 54.6558 232.107 55.2312C233.043 55.8031 233.607 56.5021 233.798 57.3283C233.989 58.1546 233.836 59.093 233.34 60.1437C232.856 61.1751 232.18 62.1605 231.313 63.0997C233.608 63.0788 234.927 63.8166 235.273 65.3132C235.493 66.2641 235.156 67.3274 234.261 68.5028C233.379 69.6591 232.219 70.6823 230.783 71.5725C229.346 72.4627 227.934 73.0681 226.547 73.3886C224.863 73.7775 223.937 73.6057 223.768 72.873C223.674 72.4676 224.935 71.5277 227.55 70.0532C228.526 69.5157 229.391 68.8889 230.145 68.1728C230.915 67.4531 231.237 66.8204 231.111 66.2748C231.042 65.9786 230.834 65.7885 230.486 65.7047C230.135 65.6052 229.759 65.5771 229.359 65.6204C228.141 65.7538 227.321 65.7216 226.898 65.5238C226.612 65.4256 226.439 65.2439 226.378 64.9789ZM239.645 72.6289C239.302 72.7081 238.849 72.5253 238.287 72.0805C237.724 71.6357 237.393 71.1951 237.292 70.7586C237.191 70.3221 237.311 68.8164 237.652 66.2415C238.009 63.6631 238.453 60.6786 238.983 57.2882C239.51 53.8822 239.81 51.8422 239.885 51.1682C239.959 50.4942 240.001 50.1069 240.01 50.0061C240.031 49.7387 240.07 49.59 240.129 49.56C240.251 49.4496 240.367 49.3818 240.476 49.3566C240.788 49.2846 241.326 49.5543 242.092 50.1657C242.857 50.7772 243.297 51.3323 243.412 51.8312C243.52 52.2989 243.5 52.9932 243.352 53.9143C243.219 54.8317 243.09 55.6251 242.966 56.2943C242.445 59.157 242.061 61.3721 241.816 62.9396C240.758 69.3091 240.035 72.5388 239.645 72.6289ZM247.473 68.5298C247.145 68.6054 246.601 68.3453 245.839 67.7494C245.074 67.138 244.646 66.6374 244.556 66.2477C244.463 65.8423 244.417 64.5801 244.42 62.4611C243.96 62.1734 243.665 61.7489 243.535 61.1877C243.463 60.8759 243.765 60.4777 244.441 59.993C244.502 55.7752 244.409 53.1363 244.164 52.0762C244.045 51.5618 244.212 51.2523 244.664 51.1479C245.038 51.0614 245.608 51.324 246.373 51.9354C247.154 52.5432 247.62 53.1745 247.771 53.8293C247.869 54.2502 247.912 55.7181 247.902 58.2329C249.189 57.6893 250.489 57.2411 251.803 56.8882C251.828 53.5819 251.721 51.4143 251.484 50.3854C251.365 49.8709 251.531 49.5615 251.983 49.457C252.358 49.3706 252.927 49.6331 253.693 50.2445C254.473 50.8524 254.939 51.4837 255.091 52.1384C255.166 52.4658 255.172 53.8767 255.108 56.3712C255.931 56.3782 256.391 56.5921 256.488 57.013C256.599 57.4963 256.111 58.0115 255.022 58.5586C254.958 60.8396 254.921 62.3507 254.912 63.0918C254.899 63.8174 254.887 64.3702 254.876 64.7504C254.877 65.1114 254.869 65.4663 254.851 65.8153C254.827 66.4941 254.737 66.8515 254.581 66.8875C254.207 66.974 253.687 66.7822 253.02 66.3122C252.369 65.8387 251.975 65.3057 251.838 64.7133C251.758 64.3704 251.735 62.7748 251.766 59.9265C250.042 60.6369 248.725 61.2284 247.816 61.7011C247.762 63.6679 247.741 65.0357 247.754 65.8044C247.764 66.5575 247.76 67.1086 247.742 67.4576C247.718 68.1364 247.629 68.4937 247.473 68.5298ZM262.603 62.5466C263.358 61.9779 263.916 61.0526 264.277 59.7705C264.638 58.4884 264.703 57.3485 264.472 56.3508C264.242 55.3531 263.943 54.6996 263.576 54.3902C262.996 54.9348 262.515 55.9081 262.132 57.3101C261.766 58.7086 261.692 59.8832 261.912 60.8342C262.128 61.7696 262.358 62.3404 262.603 62.5466ZM258.832 61.7919C258.382 59.8432 258.556 57.8572 259.353 55.8339C260.165 53.807 261.164 52.6567 262.349 52.383C263.534 52.1093 264.629 52.2997 265.634 52.9542C266.635 53.5932 267.273 54.5051 267.547 55.6899C267.817 56.8591 267.812 58.1165 267.531 59.4621C267.251 60.8078 266.698 62.0029 265.872 63.0477C265.042 64.0768 264.05 64.7247 262.897 64.9912C262.039 65.1892 261.211 64.9784 260.411 64.3585C259.611 63.7387 259.085 62.8832 258.832 61.7919ZM276.077 49.852C276.111 49.4335 276.316 49.181 276.69 49.0946C277.064 49.0081 277.567 49.2287 278.198 49.7562C278.844 50.2801 279.221 50.7759 279.329 51.2436C279.369 51.4151 279.275 52.6437 279.048 54.9296C278.821 57.2154 278.654 59.0191 278.549 60.3407C278.482 61.0459 278.191 61.4579 277.677 61.5767C277.365 61.6488 277.075 61.6009 276.806 61.433C276.55 61.246 276.365 60.9109 276.254 60.4276C276.142 59.9443 276.077 59.2368 276.059 58.305C274.986 60.9831 273.974 62.4321 273.023 62.6518C272.525 62.767 271.851 62.5861 271.001 62.109C270.149 61.6163 269.652 61.0659 269.512 60.458C269.166 58.9614 269.146 56.9544 269.451 54.4371C269.772 51.9162 270.306 50.5693 271.054 50.3965C271.506 50.292 271.951 50.4029 272.387 50.729C272.84 51.0515 273.122 51.4543 273.233 51.9376C273.276 52.1247 273.202 52.6919 273.011 53.6394C272.42 56.4854 272.247 58.4384 272.492 59.4985C272.514 59.592 272.563 59.6298 272.641 59.6117C272.875 59.5577 273.227 59.0905 273.697 58.2102C274.179 57.3106 274.659 56.0831 275.137 54.5275C275.627 52.9528 275.94 51.3943 276.077 49.852ZM281.305 52.1912L280.555 49.5812C280.353 48.7082 280.525 48.2087 281.07 48.0826C281.382 48.0106 281.713 48.0573 282.063 48.2227C282.429 48.3845 282.748 48.6968 283.019 49.1597C283.441 48.5695 283.931 48.0621 284.49 47.6375C285.061 47.1936 285.588 46.9159 286.071 46.8042C287.209 46.5413 287.841 46.6827 287.967 47.2283C288.032 47.5089 288.026 47.732 287.949 47.8975C287.885 48.0438 287.828 48.1554 287.78 48.2321C287.748 48.3053 287.674 48.4126 287.559 48.5542C287.456 48.6765 287.379 48.7683 287.327 48.8295C287.023 49.1461 286.803 49.3693 286.669 49.4988C286.068 50.0974 285.59 50.7661 285.236 51.5049C284.877 52.2281 284.699 53.1642 284.702 54.3131C284.695 56.2031 284.592 57.6392 284.392 58.6214C284.204 59.5845 283.86 60.1236 283.361 60.2389C282.878 60.3505 282.458 60.2013 282.1 59.7912C281.758 59.3776 281.541 58.9681 281.447 58.5628C281.35 58.1419 281.354 57.4841 281.459 56.5894C281.58 55.6911 281.627 54.9332 281.599 54.3156C281.583 53.6788 281.485 52.9706 281.305 52.1912Z" fill="#0C45FF"/>
<path d="M3.13385 57.7401L2.38922 47.1597L13.2855 47.8814" stroke="#0C45FF" stroke-width="3"/>
<path d="M3.57715 47.9267C17.6722 68.2476 56.9871 101.174 101.486 70.3117" stroke="#0C45FF" stroke-width="3"/>
<circle cx="103.908" cy="68.5747" r="4" transform="rotate(-12.1559 103.908 68.5747)" fill="#0C45FF"/>
</svg>
