<svg width="74" height="74" viewBox="0 0 74 74" fill="none" xmlns="http://www.w3.org/2000/svg">
<circle cx="37" cy="37" r="37" fill="#0C45FF"/>
<g clip-path="url(#clip0_153_4)">
<path d="M46.183 37.0635C46.183 33.3197 46.183 29.5759 46.183 25.8321C46.183 25.7018 46.1782 25.5681 46.2029 25.4405C46.2826 25.0342 46.7339 24.8708 47.0962 25.1137C47.1815 25.1705 47.2555 25.2439 47.3314 25.3121C51.4925 29.0472 55.6537 32.7822 59.8139 36.5182C60.2814 36.9377 60.2833 37.1675 59.8262 37.5782C55.6499 41.3299 51.4717 45.0807 47.2944 48.8316C47.2271 48.8927 47.1616 48.9574 47.0848 49.0072C46.7358 49.2327 46.292 49.0728 46.2086 48.6856C46.1811 48.5589 46.1839 48.4261 46.1839 48.295C46.183 44.5512 46.183 40.8073 46.183 37.0635Z" fill="white"/>
</g>
<g clip-path="url(#clip1_153_4)">
<path d="M27.985 37.0635C27.985 33.3197 27.985 29.5759 27.985 25.8321C27.985 25.7018 27.9897 25.5681 27.9651 25.4405C27.8854 25.0342 27.434 24.8708 27.0718 25.1137C26.9864 25.1705 26.9125 25.2439 26.8366 25.3121C22.6754 29.0472 18.5143 32.7822 14.3541 36.5182C13.8866 36.9377 13.8847 37.1675 14.3418 37.5782C18.5181 41.3299 22.6963 45.0807 26.8736 48.8316C26.9409 48.8927 27.0063 48.9574 27.0832 49.0072C27.4321 49.2327 27.8759 49.0728 27.9594 48.6856C27.9869 48.5589 27.984 48.4261 27.984 48.295C27.985 44.5512 27.985 40.8073 27.985 37.0635Z" fill="white"/>
</g>
<defs>
<clipPath id="clip0_153_4">
<rect width="24.1102" height="13.9846" fill="white" transform="translate(46.1836 49.1102) rotate(-90)"/>
</clipPath>
<clipPath id="clip1_153_4">
<rect width="24.1102" height="13.9846" fill="white" transform="matrix(4.74325e-08 -1 -1 -4.02822e-08 27.9844 49.1102)"/>
</clipPath>
</defs>
</svg>
